<svg width="442" height="354" viewBox="0 0 442 354" fill="none" xmlns="http://www.w3.org/2000/svg">
<path d="M116 90L442 90" stroke="#DCDCDC" stroke-opacity="0.8" stroke-width="3"/>
<path d="M120 352L70 154H246L260 122H372L382 154L428 352H120Z" stroke="#DCDCDC" stroke-opacity="0.8" stroke-width="3"/>
<path d="M55.6918 187.5L42.5188 202.798C41.1899 204.341 38.9192 204.652 37.2247 203.522V203.522C35.5023 202.374 33.1903 202.716 31.874 204.313L6.23609 235.431C2.77251 239.635 3.31046 245.838 7.44608 249.382L10.0572 251.62C14.1915 255.164 20.4012 254.749 24.0265 250.686L51.2067 220.225C52.3115 218.987 52.229 217.094 51.0206 215.956V215.956C49.8497 214.854 49.7307 213.035 50.748 211.789L65.6918 193.5" stroke="#DCDCDC" stroke-opacity="0.8" stroke-width="3"/>
<path d="M56.1797 160C48.1923 144 66.6919 115.5 85.6917 115.5" stroke="#DCDCDC" stroke-opacity="0.8" stroke-width="5" stroke-linecap="round"/>
<path d="M100.192 116C111.692 118.5 114.192 124.5 114.192 124.5" stroke="#DCDCDC" stroke-opacity="0.8" stroke-width="5" stroke-linecap="round"/>
<path d="M29.7722 45.3451C29.7722 45.3451 33.7069 40.0067 41.0594 43.1277C46.3214 45.3613 46.5107 49.8471 46.5116 50.461C46.5116 50.5093 46.5075 50.5545 46.5004 50.6022C46.4361 51.034 46.0633 53.3541 45.1963 55.3965C42.4657 61.8295 36.7182 64.871 36.3534 65.0589C36.341 65.0653 36.3309 65.0705 36.3186 65.0771C36.0545 65.2188 32.6744 67.0344 30.3161 68.4372C27.9688 69.8335 26.2005 73.4578 26.0492 73.7748C26.0413 73.7913 26.0351 73.8054 26.0279 73.8222L24.5982 77.1904" stroke="#DCDCDC" stroke-opacity="0.8" stroke-width="5.22257" stroke-linecap="round"/>
<circle cx="21.4001" cy="85.5113" r="2.30408" transform="rotate(23 21.4001 85.5113)" fill="#D9D9D9"/>
<path d="M53.625 263.939C53.625 263.939 57.5597 258.6 64.9122 261.721C70.1742 263.955 70.3635 268.441 70.3644 269.054C70.3644 269.103 70.3603 269.148 70.3532 269.196C70.2889 269.627 69.9161 271.948 69.0491 273.99C66.3185 280.423 60.571 283.464 60.2061 283.652C60.1938 283.659 60.1837 283.664 60.1714 283.671C59.9072 283.812 56.5272 285.628 54.1689 287.031C51.8216 288.427 50.0533 292.051 49.9019 292.368C49.8941 292.385 49.8878 292.399 49.8807 292.416L48.451 295.784" stroke="#DCDCDC" stroke-opacity="0.8" stroke-width="5.22257" stroke-linecap="round"/>
<circle cx="45.2529" cy="304.105" r="2.30408" transform="rotate(23 45.2529 304.105)" fill="#D9D9D9"/>
<path d="M181.853 11.6038C181.853 11.6038 183.73 3.72088 193.489 3.72088C200.474 3.72088 202.829 8.67595 203.123 9.36598C203.146 9.42027 203.163 9.47309 203.178 9.53022C203.312 10.0465 204 12.8341 204 15.5452C204 24.0844 198.988 30.2493 198.667 30.635C198.656 30.6481 198.647 30.6587 198.637 30.672C198.407 30.9575 195.472 34.6133 193.489 37.3171C191.516 40.0083 191.257 44.9289 191.238 45.3577C191.237 45.38 191.237 45.3988 191.237 45.4212V49.8922" stroke="#DCDCDC" stroke-opacity="0.8" stroke-width="6.3814" stroke-linecap="round"/>
<circle cx="191.612" cy="60.7781" r="2.81532" fill="#D9D9D9"/>
<path d="M132.5 130.5C127.318 121 117 108.5 99.9998 105.5C91.5309 104.006 81.5002 103.25 71 108.5C68.0001 110 57 114.5 48.5 129C42.7464 138.815 42.4999 150.75 42.5 152C42.5002 165 47.9524 173.5 49 175.5C54.7619 186.5 64.5 192.5 70 195C74 196.818 91 204 108.5 196C114 193 128.833 186.5 136 165C137.167 161.5 140.955 146 132.5 130.5Z" stroke="#DCDCDC" stroke-opacity="0.8" stroke-width="6" stroke-linecap="round"/>
</svg>
